PathFileType	3	(X/Y/Z)	D:\minhoCalibration\240510\subject1_KPNP\preferred\preferred20.trc
DataRate	CameraRate	NumFrames	NumMarkers	Units	OrigDataRate	OrigDataStartFrame	OrigNumFrames
200.0	200.0	18	10	mm	200.0	472	219	
Frame#	Time	Left_Ankle_Outer1			Left_Ankle_Inner1			Left_Knee_Outer1			Left_Knee_Inner1			Left_Wrist1			Right_Wrist1			Right_Knee_Inner1			Right_Knee_Outer1			Right_Ankle_Inner1			Right_Ankle_Outer1			
		X1	Y1	Z1	X2	Y2	Z2	X3	Y3	Z3	X4	Y4	Z4	X5	Y5	Z5	X6	Y6	Z6	X7	Y7	Z7	X8	Y8	Z8	X9	Y9	Z9	X10	Y10	Z10	
472	2.35	-536.87396	144.25714	-594.54083	-579.07819	157.01945	-558.64227	-408.93585	575.51709	-503.4306	-513.40247	555.23486	-469.54276	-407.9046	1027.7349	-683.10431	-735.44934	1096.3013	-541.06897	-712.29462	704.69086	-258.66266	-833.70923	744.47046	-284.44598	-761.513	578.20557	-673.2915	-866.93378	570.87762	-696.69617
473	2.355	-539.6012	146.51892	-594.88672	-579.79431	159.68047	-556.82123	-403.97406	576.6911	-509.75348	-506.28131	557.56653	-469.603	-408.92236	1029.7181	-691.69818	-728.9884	1103.1592	-533.21381	-692.34094	721.85388	-239.20294	-815.19147	762.03186	-258.88098	-766.33618	599.74811	-650.92474	-876.13068	595.12872	-664.73566
474	2.36	-542.65601	148.6196	-595.05658	-580.90228	162.25294	-554.60663	-399.31683	577.51373	-516.02484	-498.86481	559.18774	-470.30145	-410.21198	1031.4884	-700.45178	-721.95532	1109.6072	-526.41034	-671.44586	739.10541	-220.49927	-795.12024	780.73102	-234.48834	-773.14252	620.18628	-626.41632	-880.77026	616.53809	-638.0072
475	2.365	-546.00385	150.74242	-594.95386	-582.29633	164.51505	-552.67981	-395.20862	577.96716	-522.35718	-491.93137	560.25098	-470.24069	-411.8533	1033.0312	-709.3476	-714.9411	1115.9299	-520.02362	-649.74225	756.95923	-203.53897	-773.31378	800.54913	-211.4471	-779.74725	640.31317	-601.40308	-889.34827	641.68896	-602.26361
476	2.37	-549.41022	152.63448	-594.47809	-583.72668	166.9003	-550.24121	-391.83707	578.04303	-528.55884	-484.41971	561.27533	-470.55411	-414.94458	1034.156	-717.32733	-708.78986	1122.1354	-513.12445	-626.76666	774.92236	-188.57062	-750.01038	821.68768	-189.42853	-786.24603	660.01984	-575.6272	-894.31445	662.36334	-573.10944
477	2.375	-552.83746	153.95724	-593.27356	-584.88232	168.39305	-547.89459	-389.57553	577.82721	-534.44202	-476.99936	560.85889	-473.73547	-418.73926	1034.7936	-724.88654	-702.07007	1127.5977	-507.40451	-603.48962	792.85095	-174.87314	-724.96582	843.22504	-169.14937	-792.95886	678.85156	-548.49927	-900.21014	684.46112	-538.84741
478	2.38	-555.53687	155.27725	-592.20337	-586.04285	169.70499	-545.18384	-388.12302	577.38409	-539.87463	-471.26031	561.29822	-472.3959	-423.42902	1034.9705	-731.80438	-694.98755	1133.4464	-502.18289	-578.85846	810.75079	-164.4248	-697.84222	865.03412	-151.57162	-799.18542	696.76965	-519.74506	-905.37543	706.67694	-501.95569
479	2.385	-558.11938	156.00603	-590.31738	-586.8642	170.73419	-541.8728	-387.26187	576.81848	-544.9635	-465.7561	560.53522	-475.08524	-428.96017	1034.5378	-737.92664	-688.24451	1138.499	-496.98145	-554.35803	828.23883	-156.05806	-669.44403	887.92017	-135.71277	-805.63776	713.88623	-489.60336	-909.73431	728.0351	-463.60535
480	2.39	-560.68683	156.34775	-587.90594	-587.98267	171.28276	-538.55658	-386.45483	576.36072	-550.00964	-461.21848	560.79761	-475.16083	-434.72543	1033.7251	-743.5954	-682.12543	1144.1154	-491.60037	-529.68329	845.22736	-149.40923	-639.70007	910.2124	-123.21967	-811.76776	730.31903	-458.01776	-912.86688	748.82611	-423.69519
481	2.395	-563.29724	156.62323	-584.96222	-589.05157	171.90683	-535.00104	-386.84003	575.5675	-553.63287	-458.74707	561.33807	-474.87119	-440.76389	1032.4149	-748.51154	-675.02057	1148.7871	-487.36215	-505.3035	861.40228	-144.74637	-609.16266	932.14124	-113.91179	-817.94806	745.237	-424.38113	-914.74396	769.34723	-381.93332
482	2.4	-565.93335	156.62206	-582.01001	-590.4024	171.89304	-531.03003	-387.16144	575.3988	-556.30847	-457.80194	560.63208	-475.12125	-447.0491	1030.5608	-752.6123	-669.4577	1153.6	-482.19305	-481.09607	876.78778	-142.44231	-578.87756	953.49841	-107.39538	-822.28082	760.10132	-390.08884	-914.94122	789.6369	-338.08188
483	2.405	-568.74091	156.64383	-578.72852	-591.88281	172.01379	-527.26501	-388.53436	574.17303	-558.09399	-456.69699	560.06744	-476.15268	-453.51465	1028.1969	-755.89532	-662.02887	1157.7086	-478.57446	-458.96902	891.0578	-140.50847	-548.66064	973.73224	-103.92445	-827.07477	773.12469	-348.27811	-912.7981	809.82257	-292.04703
484	2.41	-571.34894	156.63785	-575.54779	-593.54114	171.73383	-523.21271	-389.6994	573.47919	-558.78613	-456.69382	560.40131	-474.61078	-459.83664	1025.4048	-758.42688	-655.64612	1162.0979	-474.90668	-437.39453	904.4425	-140.3989	-519.15546	992.47437	-103.28487	-829.28259	786.58923	-305.4791	-907.74341	829.9646	-243.99605
485	2.415	-573.87927	156.46248	-572.36108	-595.4693	171.53719	-519.61298	-391.1908	572.99463	-558.12994	-457.13553	559.5368	-474.37415	-466.13177	1022.161	-760.35388	-649.19141	1166.9233	-471.5054	-417.4119	916.7912	-141.42142	-490.86102	1009.7641	-104.5664	-829.05524	800.58807	-260.76093	-898.99304	850.39008	-194.68126
486	2.42	-576.52161	156.1291	-569.09155	-597.7453	171.35234	-516.44318	-393.39389	571.5481	-556.76538	-458.14948	559.2843	-472.53906	-472.25116	1018.7647	-761.77783	-641.95862	1171.5494	-468.2406	-399.15036	928.27728	-143.27745	-463.85516	1024.7288	-109.88747	-825.3493	814.86572	-213.10127	-886.64709	871.11029	-143.27133
487	2.425	-579.35071	155.81136	-565.98816	-600.04462	170.77879	-513.00952	-394.92972	570.87646	-554.84198	-459.19537	559.35382	-470.1225	-478.53665	1015.0186	-762.37781	-636.23175	1176.548	-466.55832	-381.94858	939.27844	-146.33868	-439.50104	1038.0515	-115.57039	-817.60394	829.64557	-162.91766	-869.76965	892.69543	-90.351677
488	2.43	-582.12195	155.48016	-563.03943	-602.79016	170.39578	-510.21124	-396.64575	570.48706	-551.79688	-461.82153	559.34399	-466.12943	-484.32013	1011.5201	-762.51758	-630.07227	1180.8458	-464.95007	-366.6543	948.94421	-149.41551	-417.49503	1049.4575	-123.08814	-804.98297	844.29095	-107.77541	-848.02881	914.5293	-37.524723
489	2.435	-584.76709	155.02954	-560.41498	-605.1969	169.53824	-507.36432	-398.01395	569.96393	-548.68445	-464.03	558.50519	-464.0123	-489.66257	1008.2183	-762.27338	-624.48553	1184.6691	-464.0076	-353.38315	957.37848	-152.71468	-399.31735	1059.2002	-130.63304	-787.99219	860.03186	-53.094666	-821.3772	937.31158	15.280907
